<mxfile host="app.diagrams.net" modified="2023-10-01T15:20:00.273Z" agent="Mozilla/5.0 (Windows NT 10.0; Win64; x64) AppleWebKit/537.36 (KHTML, like Gecko) Chrome/117.0.0.0 Safari/537.36" version="21.7.5" etag="oS7NkmvQM0b0Oq3WrEXF" type="github">
  <diagram name="Page-1" id="_O_V9mBHSbrofvjGmOnI">
    <mxGraphModel>
      <root>
        <mxCell id="0" />
        <mxCell id="1" parent="0" />
      </root>
    </mxGraphModel>
  </diagram>
</mxfile>
